<svg data-v-0dd9719b="" version="1.0" xmlns="http://www.w3.org/2000/svg" xmlns:xlink="http://www.w3.org/1999/xlink" width="100%" height="100%" viewBox="0 0 340.000000 250.000000" preserveAspectRatio="xMidYMid meet" color-interpolation-filters="sRGB" style="margin: auto;"> <rect data-v-0dd9719b="" x="0" y="0" width="100%" height="100%" fill="#fff" fill-opacity="1" class="background"></rect> <rect data-v-0dd9719b="" x="0" y="0" width="100%" height="100%" fill="url(#watermark)" fill-opacity="1" class="watermarklayer"></rect> <g data-v-0dd9719b="" fill="#333" class="icon-text-wrapper icon-svg-group iconsvg" transform="translate(48.12000274658203,95.0026969909668)"><g class="iconsvg-imagesvg" transform="translate(0,0)"><g><rect fill="#333" fill-opacity="0" stroke-width="2" x="0" y="0" width="60" height="59.99460048595627" class="image-rect"></rect> <svg x="0" y="0" width="60" height="59.99460048595627" filtersec="colorsb8896045256" class="image-svg-svg primary" style="overflow: visible;"><svg xmlns="http://www.w3.org/2000/svg" xlink="http://www.w3.org/1999/xlink" viewBox="0 0 113.1199951171875 113.11001586914062"><defs><linearGradient id="a4e1f3515-3bba-4d3a-8578-d2b68f2436f6" x1="74.95" y1="36.83" x2="74.95" y2="97.3" gradientUnits="userSpaceOnUse"><stop offset="0" stop-color="#009fe8"></stop><stop offset="1" stop-color="#008bd5"></stop></linearGradient><linearGradient id="bf84630de-3aaa-44f3-9e46-1608d0556898" x1="38.16" y1="47.05" x2="38.16" y2="106.29" href="#a4e1f3515-3bba-4d3a-8578-d2b68f2436f6"></linearGradient></defs><title>资源 1</title><g fill-rule="evenodd"><path fill="url(#a4e1f3515-3bba-4d3a-8578-d2b68f2436f6)" d="M70.55 87.8V44.66h8.8V90.32l-8.8 8.79V87.8z"></path><path fill="#1ea9d8" d="M52.16 97.4V33.49h8.79v75.22l-4.39 4.4-4.4-4.4V97.4z"></path><path d="M56.56 11.31L11.31 56.56 33.76 79v11.32L0 56.56 56.56 0l11.79 11.8v11.31l-11.79-11.8zm14 2.69l42.56 42.56-33.77 33.76V79l22.45-22.44-31.25-31.25z" fill="#008bd5"></path><path fill="#0077b8" d="M79.35 22.8v11.31l2.2 2.2V25l-2.2-2.2z"></path><path fill="url(#bf84630de-3aaa-44f3-9e46-1608d0556898)" d="M42.56 87.8V44.66h-8.8V90.32l8.8 8.79V87.8z"></path><path fill="#0077b8" d="M83.75 74.61l-2.2 13.51-2.2 2.2V79l4.4-4.39zM29.36 74.61l2.2 13.51 2.2 2.2V79l-4.4-4.39z"></path><path fill="#1ea9d8" d="M70.49 100.21l4.46-5.49 4.4-50.06V11.8h-8.8v32.86l-.06 55.55zM42.56 99.11l-4.4-4.39-4.4-50.06h8.8v54.45z"></path></g></svg></svg> <!----></g></g> <g transform="translate(67,5.301052093505859)"><g data-gra="path-name" fill-rule="" class="tp-name iconsvg-namesvg" transform="translate(0,0)"><g transform="scale(1)"><g><path d="M5.76-25.81L16.81-25.81 16.81-29.48 18-29.48 18-25.81 29.09-25.81 29.09-19.26 18-19.26 18-15.59 33.55-15.59 33.55-14.51 1.3-14.51 1.3-15.59 16.81-15.59 16.81-19.26 5.76-19.26 5.76-25.81ZM2.99 4.32L2.48 3.02Q6.91 2.02 9.68 0.99 12.46-0.04 14.02-1.1 15.59-2.16 16.18-3.33 16.78-4.5 16.85-5.8L16.85-5.8Q16.88-6.37 16.9-6.95 16.92-7.52 16.92-8.1L16.92-8.1 18.22-8.1Q18.22-7.52 18.2-6.93 18.18-6.34 18.14-5.72L18.14-5.72Q18.07-4.93 17.93-4.25 17.78-3.56 17.5-2.92L17.5-2.92Q19.04-2.48 21.1-1.76 23.15-1.04 25.24-0.2 27.32 0.65 29.21 1.53 31.1 2.41 32.4 3.2L32.4 3.2 31.79 4.32Q30.53 3.56 28.6 2.65 26.68 1.73 24.57 0.86 22.46 0 20.41-0.72 18.36-1.44 16.85-1.87L16.85-1.87Q16.13-0.97 14.99-0.16 13.86 0.65 12.19 1.39 10.51 2.12 8.23 2.84 5.94 3.56 2.99 4.32L2.99 4.32ZM6.73-10.84L28.12-10.84 28.12-1.37 26.89-1.37 26.89-9.68 7.96-9.68 7.96-1.37 6.73-1.37 6.73-10.84ZM6.95-24.73L6.95-20.34 16.81-20.34 16.81-24.73 6.95-24.73ZM27.86-24.73L18-24.73 18-20.34 27.86-20.34 27.86-24.73ZM39.35 4.54L38.27 3.71Q42.77-0.86 44.1-4.79L44.1-4.79Q45.43-8.78 45.43-18L45.43-18 45.43-29.02 46.66-29.02 46.66-17.96Q46.66-8.6 45.29-4.28L45.29-4.28Q43.96-0.11 39.35 4.54L39.35 4.54ZM65.59-29.02L66.85-29.02 66.85 3.89 65.59 3.89 65.59-29.02ZM55.33-28.04L56.59-28.04 56.59 3.42 55.33 3.42 55.33-28.04ZM38.84-9.18L37.73-9.72Q38.23-10.69 38.77-11.95 39.31-13.21 39.8-14.6 40.28-15.98 40.7-17.35 41.11-18.72 41.4-19.87L41.4-19.87 42.62-19.55Q42.3-18.32 41.85-16.92 41.4-15.52 40.9-14.15 40.39-12.78 39.85-11.48 39.31-10.19 38.84-9.18L38.84-9.18ZM48.17-19.26L49.21-19.84Q49.72-19.01 50.35-17.8 50.98-16.6 51.59-15.3 52.2-14 52.72-12.73 53.24-11.45 53.53-10.55L53.53-10.55 52.38-10.04Q52.09-10.94 51.55-12.22 51.01-13.5 50.42-14.81 49.82-16.13 49.21-17.32 48.6-18.5 48.17-19.26L48.17-19.26ZM58.57-19.26L59.62-19.84Q60.12-19.01 60.7-17.89 61.27-16.78 61.96-15.3L61.96-15.3Q62.68-13.82 63.16-12.65 63.65-11.48 63.94-10.55L63.94-10.55 62.82-10.01Q62.21-11.92 60.88-14.72L60.88-14.72Q60.19-16.2 59.63-17.32 59.08-18.43 58.57-19.26L58.57-19.26ZM91.01-23.08L91.01-14.18 104.62-14.18 104.62-12.92 91.01-12.92 91.01-0.47Q91.01 0.5 90.9 1.17 90.79 1.84 90.47 2.25 90.14 2.66 89.57 2.88 88.99 3.1 88.02 3.2L88.02 3.2Q86.83 3.35 85.75 3.37 84.67 3.38 83.74 3.31L83.74 3.31 83.52 1.87Q84.35 1.94 85.36 1.96 86.36 1.98 87.41 1.98L87.41 1.98Q88.09 1.98 88.52 1.87 88.96 1.76 89.23 1.49 89.5 1.22 89.6 0.74 89.71 0.25 89.71-0.54L89.71-0.54 89.71-12.92 76.93-12.92 78.44-25.81Q81.47-25.96 84.51-26.17 87.55-26.39 90.72-26.71L90.72-26.71Q97.09-27.43 102.02-28.22L102.02-28.22 102.35-26.89Q99.86-26.46 97-26.08 94.14-25.7 90.97-25.38L90.97-25.38Q87.8-25.09 85.01-24.88 82.22-24.66 79.7-24.55L79.7-24.55 78.41-14.18 89.71-14.18 89.71-23.08 91.01-23.08ZM74.48 2.02L73.48 1.04Q75.96-1.22 78.34-4.14L78.34-4.14Q79.56-5.65 80.55-7 81.54-8.35 82.33-9.61L82.33-9.61 83.52-8.86Q81.9-6.3 79.42-3.28L79.42-3.28Q78.19-1.76 76.97-0.47 75.74 0.83 74.48 2.02L74.48 2.02ZM95.76-8.6L96.7-9.5Q98.64-7.78 101.52-4.46L101.52-4.46Q104.47-1.12 105.98 0.97L105.98 0.97 104.9 1.87Q104.15 0.76 103.05-0.59 101.95-1.94 100.51-3.6L100.51-3.6Q99.07-5.26 97.88-6.5 96.7-7.74 95.76-8.6L95.76-8.6ZM114.44-9.58L128.2-9.58 128.2-0.32 114.44-0.32 114.44-9.58ZM115.7-8.32L115.7-1.55 126.94-1.55 126.94-8.32 115.7-8.32ZM112.64-16.09L112.32-17.21Q116.24-17.93 118.69-18.74 121.14-19.55 122.54-20.59L122.54-20.59Q123.52-21.31 124.07-22.1 124.63-22.9 124.92-23.83L124.92-23.83 111.6-23.83 111.6-25.02 125.17-25.02 125.28-25.7Q125.35-26.57 125.42-27.45 125.5-28.33 125.5-29.16L125.5-29.16 126.68-29.16Q126.68-28.3 126.65-27.41 126.61-26.53 126.54-25.67L126.54-25.67 126.43-25.02 140.29-25.02 140.29-23.83 126.18-23.83Q126-23.08 125.71-22.54L125.71-22.54Q126.94-22.21 128.57-21.58 130.21-20.95 132.16-20.12L132.16-20.12Q134.17-19.26 135.72-18.5 137.27-17.75 138.38-17.14L138.38-17.14 137.81-16.09Q136.69-16.74 135.14-17.5 133.6-18.25 131.62-19.12L131.62-19.12Q129.67-19.94 128.03-20.57 126.4-21.2 125.17-21.6L125.17-21.6Q124.42-20.48 123.19-19.62L123.19-19.62Q121.57-18.5 119.02-17.66 116.46-16.81 112.64-16.09L112.64-16.09ZM109.58-15.19L142.34-15.19 142.34-13.97 136.76-13.97 136.76-0.65Q136.76 0.4 136.6 1.1 136.44 1.8 135.97 2.27 135.5 2.74 134.68 2.97 133.85 3.2 132.52 3.31L132.52 3.31Q131.58 3.38 130.52 3.4 129.46 3.42 128.7 3.38L128.7 3.38 128.45 2.02Q129.31 2.09 130.3 2.12 131.29 2.16 132.23 2.12L132.23 2.12Q133.27 2.12 133.92 1.96 134.57 1.8 134.91 1.46 135.25 1.12 135.36 0.56 135.47 0 135.47-0.83L135.47-0.83 135.47-13.97 109.58-13.97 109.58-15.19ZM150.34-27.25L173.56-27.25 173.56-11.2 150.34-11.2 150.34-27.25ZM151.6-18.72L151.6-12.42 161.39-12.42 161.39-18.72 151.6-18.72ZM162.58-12.42L172.33-12.42 172.33-18.72 162.58-18.72 162.58-12.42ZM151.6-26.03L151.6-19.91 161.39-19.91 161.39-26.03 151.6-26.03ZM172.33-26.03L162.58-26.03 162.58-19.91 172.33-19.91 172.33-26.03ZM154.76-8.46L155.99-8.46 155.99-1.22Q155.99-0.4 156.1 0.11 156.2 0.61 156.49 0.9 156.78 1.19 157.28 1.33 157.79 1.48 158.62 1.51L158.62 1.51Q159.26 1.55 160.2 1.57 161.14 1.58 162.13 1.58 163.12 1.58 164.03 1.57 164.95 1.55 165.56 1.51L165.56 1.51Q166.5 1.44 167.06 1.33 167.62 1.22 167.94 0.97 168.26 0.72 168.41 0.29 168.55-0.14 168.66-0.83L168.66-0.83Q168.73-1.44 168.8-2.38 168.88-3.31 168.91-4.07L168.91-4.07 170.21-3.74Q170.14-2.99 170.06-2.18 169.99-1.37 169.92-0.65L169.92-0.65Q169.81 0.29 169.58 0.92 169.34 1.55 168.89 1.93 168.44 2.3 167.69 2.48 166.93 2.66 165.78 2.74L165.78 2.74Q165.1 2.77 164.12 2.79 163.15 2.81 162.13 2.81 161.1 2.81 160.11 2.79 159.12 2.77 158.4 2.74L158.4 2.74Q157.36 2.66 156.65 2.47 155.95 2.27 155.54 1.84 155.12 1.4 154.94 0.72 154.76 0.04 154.76-1.01L154.76-1.01 154.76-8.46ZM172.04-7.2L173.12-7.88Q173.66-7.16 174.31-6.12 174.96-5.08 175.75-3.71L175.75-3.71Q176.54-2.38 177.1-1.31 177.66-0.25 178.06 0.54L178.06 0.54 176.94 1.15Q176.54 0.32 175.99-0.72 175.43-1.76 174.64-3.1L174.64-3.1Q173.12-5.72 172.04-7.2L172.04-7.2ZM146.95 1.69L145.87 1.04Q146.45 0.18 147.08-0.85 147.71-1.87 148.28-3.01 148.86-4.14 149.36-5.29 149.87-6.44 150.26-7.52L150.26-7.52 151.45-7.02Q150.55-4.75 149.35-2.45 148.14-0.14 146.95 1.69L146.95 1.69ZM160.02-9.4L160.99-10.19Q161.89-9.14 163.37-7.27L163.37-7.27Q164.09-6.34 164.63-5.56 165.17-4.79 165.56-4.18L165.56-4.18 164.56-3.38Q163.8-4.64 162.4-6.48L162.4-6.48Q160.92-8.42 160.02-9.4L160.02-9.4Z" transform="translate(-1.2999999523162842, 29.479999542236328)"></path></g> <!----> <!----> <!----> <!----> <!----> <!----> <!----></g></g> <g data-gra="path-slogan" fill-rule="" class="tp-slogan iconsvg-slogansvg" fill="#333" transform="translate(5,40.02000045776367)"><rect x="0" height="1" y="4.185000419616699" width="32.684444427490234"></rect> <rect height="1" y="4.185000419616699" width="32.684444427490234" x="134.0755500793457"></rect> <g transform="translate(35.684444427490234,0)"><g transform="scale(1)"><path d="M7.31-3.61L4.69-3.61L4.69-4.59L8.44-4.59L8.44 0L7.69 0L7.41-1.08Q6.42 0.09 4.59 0.14L4.59 0.14Q2.86 0.14 1.92-0.75L1.92-0.75Q0.52-2.06 0.56-4.36L0.56-4.36Q0.89-8.63 4.64-8.81L4.64-8.81Q7.83-8.63 8.30-6L8.30-6L7.17-6Q6.70-7.78 4.59-7.83L4.59-7.83Q1.92-7.64 1.78-4.31L1.78-4.31Q1.78-0.75 4.64-0.75L4.64-0.75Q5.67-0.75 6.42-1.31L6.42-1.31Q7.36-2.06 7.31-3.61L7.31-3.61ZM15.89-3.19L15.89-8.58L17.06-8.58L17.06-3.05Q16.92 0.05 13.55 0.14L13.55 0.14Q10.41 0.05 10.27-2.86L10.27-2.86L10.27-8.58L11.44-8.58L11.44-3.19Q11.48-0.84 13.59-0.80L13.59-0.80Q15.89-0.84 15.89-3.19L15.89-3.19ZM19.03-8.58L20.20-8.58L20.20 0L19.03 0L19.03-8.58ZM23.02-1.03L28.31-1.03L28.31 0L21.56 0L21.56-0.94L26.81-7.59L21.94-7.59L21.94-8.58L28.31-8.58L28.31-7.59L23.02-1.03ZM30.61-5.06L35.11-5.06L35.11-8.58L36.28-8.58L36.28 0L35.11 0L35.11-3.98L30.61-3.98L30.61 0L29.44 0L29.44-8.58L30.61-8.58L30.61-5.06ZM44.86-4.27L44.86-4.27Q44.67-7.64 41.86-7.83L41.86-7.83Q39-7.69 38.86-4.27L38.86-4.27Q39-0.94 41.86-0.80L41.86-0.80Q44.67-0.98 44.86-4.27ZM46.03-4.27L46.03-4.27Q45.75 0 41.86 0.14L41.86 0.14Q37.92 0 37.64-4.27L37.64-4.27Q37.88-8.72 41.86-8.81L41.86-8.81Q45.75-8.67 46.03-4.27ZM53.06-3.19L53.06-8.58L54.23-8.58L54.23-3.05Q54.09 0.05 50.72 0.14L50.72 0.14Q47.58 0.05 47.44-2.86L47.44-2.86L47.44-8.58L48.61-8.58L48.61-3.19Q48.66-0.84 50.77-0.80L50.77-0.80Q53.06-0.84 53.06-3.19L53.06-3.19ZM59.34-8.58L60.52-8.58L60.52-1.03L64.88-1.03L64.88 0L59.34 0L59.34-8.58ZM67.31-1.03L72.47-1.03L72.47 0L66.14 0L66.14-8.58L72.38-8.58L72.38-7.59L67.31-7.59L67.31-4.92L72-4.92L72-3.89L67.31-3.89L67.31-1.03ZM78.98-1.08L78.09-1.78L78.70-2.48L79.78-1.64Q80.77-2.63 80.77-4.27L80.77-4.27Q80.58-7.64 77.77-7.83L77.77-7.83Q74.91-7.69 74.77-4.27L74.77-4.27Q74.91-0.94 77.77-0.80L77.77-0.80Q78.47-0.80 78.98-1.08L78.98-1.08ZM80.72-0.94L81.84-0.05L81.28 0.56L79.97-0.33Q79.13 0.14 77.77 0.14L77.77 0.14Q73.83 0 73.55-4.27L73.55-4.27Q73.78-8.72 77.77-8.81L77.77-8.81Q81.66-8.67 81.94-4.27L81.94-4.27Q81.89-2.20 80.72-0.94L80.72-0.94ZM83.48-8.58L84.66-8.58L84.66 0L83.48 0L83.48-8.58ZM92.91-6.09L92.91-6.09L91.83-6.09Q91.73-7.73 89.67-7.83L89.67-7.83Q87.75-7.78 87.75-6.33L87.75-6.33Q87.75-5.39 88.78-5.25L88.78-5.25L91.22-4.69Q93.14-4.22 93.14-2.34L93.14-2.34Q93.09 0.05 89.77 0.14L89.77 0.14Q87.94 0.14 87.19-0.61L87.19-0.61Q86.25-1.31 86.30-2.77L86.30-2.77L87.42-2.77Q87.47-0.80 89.77-0.75L89.77-0.75Q92.02-0.80 92.06-2.20L92.06-2.20Q92.25-3.38 90.19-3.75L90.19-3.75L88.41-4.13Q86.58-4.64 86.58-6.19L86.58-6.19Q86.72-8.72 89.58-8.81L89.58-8.81Q92.81-8.81 92.91-6.09ZM94.78-8.58L95.95-8.58L95.95 0L94.78 0L94.78-8.58Z" transform="translate(-0.5609879032258065, 8.8125)"></path></g></g></g></g></g><defs v-gra="od"></defs></svg>